<svg xmlns="http://www.w3.org/2000/svg" viewBox="0 0 160 120" xmlns:c2pa="http://c2pa.org/manifest"><metadata><c2pa:manifest>AAAWgmp1bWIAAAAeanVtZGMycGEAEQAQgAAAqgA4m3EDYzJwYQAAABZcanVtYgAAAEdqdW1kYzJtYQARABCAAACqADibcQN1cm46YzJwYTphMzgyMDJmNy1jZTBjLTQ2NjMtODhjNS1kZjJiZTY0MTQ5YTEAAAADl2p1bWIAAAApanVtZGMyYXMAEQAQgAAAqgA4m3EDYzJwYS5hc3NlcnRpb25zAAAAALxqdW1iAAAARGp1bWRjYm9yABEAEIAAAKoAOJtxE2MycGEuaW5ncmVkaWVudC52MwAAAAAYYzJzaAPG5AA83+nxOASyTPI72IgAAABwY2JvcqNpZGM6Zm9ybWF0bWltYWdlL3N2Zyt4bWxqaW5zdGFuY2VJRHgseG1wOmlpZDowZmNmYTkyYy0xYzljLTQ1M2QtOGY3Zi04ZDQ1ZDMxMjdiYzhscmVsYXRpb25zaGlwaHBhcmVudE9mAAAB4mp1bWIAAABBanVtZGNib3IAEQAQgAAAqgA4m3ETYzJwYS5hY3Rpb25zLnYyAAAAABhjMnNo+Kn6FNEeN7bW/kb6dif/2wAAAZljYm9yomdhY3Rpb25zgqJmYWN0aW9ua2MycGEub3BlbmVkanBhcmFtZXRlcnOha2luZ3JlZGllbnRzgaJjdXJseC1zZWxmI2p1bWJmPWMycGEuYXNzZXJ0aW9ucy9jMnBhLmluZ3JlZGllbnQudjNkaGFzaFggZqPn2mslVK37FH5LmSrgwqm8TZb+wLDY5s6gK25ZLVqkZmFjdGlvbngdY29tLmFudGhyb3BpYy5jbGF1ZGUucHJvdmlkZWRqcGFyYW1ldGVyc6F4H2NvbS5hbnRocm9waWMub3JpZ2luLWNvbmZpZGVuY2VndW5rbm93bmtkZXNjcmlwdGlvbnhmQ2xhdWRlIHByb3ZpZGVkIHRoaXMgZmlsZSBhdCB0aGUgcmVxdWVzdCBvZiBhIHVzZXIgYW5kIG1heSBoYXZlIGNyZWF0ZWQgb3IgbW9kaWZpZWQgdGhlIGZpbGUgY29udGVudHMubXNvZnR3YXJlQWdlbnShZG5hbWVmQ2xhdWRlcmFsbEFjdGlvbnNJbmNsdWRlZPUAAADIanVtYgAAAEBqdW1kY2JvcgARABCAAACqADibcRNjMnBhLmhhc2guZGF0YQAAAAAYYzJzaIG3sKqCP+7jB2URuN7gLj4AAACAY2JvcqVjYWxnZnNoYTI1NmNwYWRNAAAAAAAAAAAAAAAAAGRoYXNoWCA9uUoaAlxNqFwc/UsPFJ7puxIBFjeQXuKhiXmhVgbknmRuYW1lbmp1bWJmIG1hbmlmZXN0amV4Y2x1c2lvbnOBomVzdGFydBh9Zmxlbmd0aBkeBAAAAj5qdW1iAAAAJ2p1bWRjMmNsABEAEIAAAKoAOJtxA2MycGEuY2xhaW0udjIAAAACD2Nib3KlY2FsZ2ZzaGEyNTZpc2lnbmF0dXJleE1zZWxmI2p1bWJmPS9jMnBhL3VybjpjMnBhOmEzODIwMmY3LWNlMGMtNDY2My04OGM1LWRmMmJlNjQxNDlhMS9jMnBhLnNpZ25hdHVyZWppbnN0YW5jZUlEeCx4bXA6aWlkOmFhNjM4Yzg2LTVmYzYtNDIyOC1iMmU5LTYzNTNkNGI1N2E4MnJjcmVhdGVkX2Fzc2VydGlvbnODomN1cmx4LXNlbGYjanVtYmY9YzJwYS5hc3NlcnRpb25zL2MycGEuaW5ncmVkaWVudC52M2RoYXNoWCBmo+faayVUrfsUfkuZKuDCqbxNlv7AsNjmzqArblktWqJjdXJseCpzZWxmI2p1bWJmPWMycGEuYXNzZXJ0aW9ucy9jMnBhLmFjdGlvbnMudjJkaGFzaFggvJfnHNYo0JlZuUk5F2ASlShgfIEP3jGqbul5Pfgp2LKiY3VybHgpc2VsZiNqdW1iZj1jMnBhLmFzc2VydGlvbnMvYzJwYS5oYXNoLmRhdGFkaGFzaFggDjhYi6RQPIqwHP4uGX9NSD+GSJlOmwQysil9pYVaa8h0Y2xhaW1fZ2VuZXJhdG9yX2luZm+jZG5hbWVvQW50aHJvcGljIEZpbGVzZ3ZlcnNpb25lMS4wLjBrc3BlY1ZlcnNpb25lMi40LjAAABA4anVtYgAAAChqdW1kYzJjcwARABCAAACqADibcQNjMnBhLnNpZ25hdHVyZQAAABAIY2JvctKEWQISogEmGCFZAgowggIGMIIBjaADAgECAhRA5aAK7sI50L64g/oGQgU9Z1UTADAKBggqhkjOPQQDAzBJMRcwFQYDVQQKEw5BbnRocm9waWMsIFBCQzEuMCwGA1UEAxMlQW50aHJvcGljIENvbnRlbnQgQ3JlZGVudGlhbHMgUm9vdCBDQTAeFw0yNjA4MDcxODQzNTZaFw0yODA4MDYxOTQzNTZaMEQxFzAVBgNVBAoTDkFudGhyb3BpYywgUEJDMSkwJwYDVQQDEyBBbnRocm9waWMgQ2xhdWRlIENvbnRlbnQgU2lnbmluZzBZMBMGByqGSM49AgEGCCqGSM49AwEHA0IABJh6CmvLUBgFFNU0vUKlOVtE6djd17L5SuwX0LemFisBM3dkd/3cyjxFA3Qo5S46fX0/ihY0VZ7mfb9KF703t5OjWDBWMA4GA1UdDwEB/wQEAwIHgDAVBgNVHSUEDjAMBgorBgEEAYPoXgIBMAwGA1UdEwEB/wQCMAAwHwYDVR0jBBgwFoAUzlHiBIFOZFsj+OPEz5o+nMHXXMIwCgYIKoZIzj0EAwMDZwAwZAIwMXMdFJ4BetLLVY7ORuE9noqbbAZOZn/aArXyTwFAZfKrPzxF2vPoJNf1+UCdg1XGAjBwX1zd9WGqYkqmL5SFqw1QySjr1zJfpJM9+1rdDwSPLMOPOjKuiXjoU/pUUeG9RwmhY3BhZFkNngAAAAAAAAAAAAAAAAAAAAAAAAAAAAAAAAAAAAAAAAAAAAAAAAAAAAAAAAAAAAAAAAAAAAAAAAAAAAAAAAAAAAAAAAAAAAAAAAAAAAAAAAAAAAAAAAAAAAAAAAAAAAAAAAAAAAAAAAAAAAAAAAAAAAAAAAAAAAAAAAAAAAAAAAAAAAAAAAAAAAAAAAAAAAAAAAAAAAAAAAAAAAAAAAAAAAAAAAAAAAAAAAAAAAAAAAAAAAAAAAAAAAAAAAAAAAAAAAAAAAAAAAAAAAAAAAAAAAAAAAAAAAAAAAAAAAAAAAAAAAAAAAAAAAAAAAAAAAAAAAAAAAAAAAAAAAAAAAAAAAAAAAAAAAAAAAAAAAAAAAAAAAAAAAAAAAAAAAAAAAAAAAAAAAAAAAAAAAAAAAAAAAAAAAAAAAAAAAAAAAAAAAAAAAAAAAAAAAAAAAAAAAAAAAAAAAAAAAAAAAAAAAAAAAAAAAAAAAAAAAAAAAAAAAAAAAAAAAAAAAAAAAAAAAAAAAAAAAAAAAAAAAAAAAAAAAAAAAAAAAAAAAAAAAAAAAAAAAAAAAAAAAAAAAAAAAAAAAAAAAAAAAAAAAAAAAAAAAAAAAAAAAAAAAAAAAAAAAAAAAAAAAAAAAAAAAAAAAAAAAAAAAAAAAAAAAAAAAAAAAAAAAAAAAAAAAAAAAAAAAAAAAAAAAAAAAAAAAAAAAAAAAAAAAAAAAAAAAAAAAAAAAAAAAAAAAAAAAAAAAAAAAAAAAAAAAAAAAAAAAAAAAAAAAAAAAAAAAAAAAAAAAAAAAAAAAAAAAAAAAAAAAAAAAAAAAAAAAAAAAAAAAAAAAAAAAAAAAAAAAAAAAAAAAAAAAAAAAAAAAAAAAAAAAAAAAAAAAAAAAAAAAAAAAAAAAAAAAAAAAAAAAAAAAAAAAAAAAAAAAAAAAAAAAAAAAAAAAAAAAAAAAAAAAAAAAAAAAAAAAAAAAAAAAAAAAAAAAAAAAAAAAAAAAAAAAAAAAAAAAAAAAAAAAAAAAAAAAAAAAAAAAAAAAAAAAAAAAAAAAAAAAAAAAAAAAAAAAAAAAAAAAAAAAAAAAAAAAAAAAAAAAAAAAAAAAAAAAAAAAAAAAAAAAAAAAAAAAAAAAAAAAAAAAAAAAAAAAAAAAAAAAAAAAAAAAAAAAAAAAAAAAAAAAAAAAAAAAAAAAAAAAAAAAAAAAAAAAAAAAAAAAAAAAAAAAAAAAAAAAAAAAAAAAAAAAAAAAAAAAAAAAAAAAAAAAAAAAAAAAAAAAAAAAAAAAAAAAAAAAAAAAAAAAAAAAAAAAAAAAAAAAAAAAAAAAAAAAAAAAAAAAAAAAAAAAAAAAAAAAAAAAAAAAAAAAAAAAAAAAAAAAAAAAAAAAAAAAAAAAAAAAAAAAAAAAAAAAAAAAAAAAAAAAAAAAAAAAAAAAAAAAAAAAAAAAAAAAAAAAAAAAAAAAAAAAAAAAAAAAAAAAAAAAAAAAAAAAAAAAAAAAAAAAAAAAAAAAAAAAAAAAAAAAAAAAAAAAAAAAAAAAAAAAAAAAAAAAAAAAAAAAAAAAAAAAAAAAAAAAAAAAAAAAAAAAAAAAAAAAAAAAAAAAAAAAAAAAAAAAAAAAAAAAAAAAAAAAAAAAAAAAAAAAAAAAAAAAAAAAAAAAAAAAAAAAAAAAAAAAAAAAAAAAAAAAAAAAAAAAAAAAAAAAAAAAAAAAAAAAAAAAAAAAAAAAAAAAAAAAAAAAAAAAAAAAAAAAAAAAAAAAAAAAAAAAAAAAAAAAAAAAAAAAAAAAAAAAAAAAAAAAAAAAAAAAAAAAAAAAAAAAAAAAAAAAAAAAAAAAAAAAAAAAAAAAAAAAAAAAAAAAAAAAAAAAAAAAAAAAAAAAAAAAAAAAAAAAAAAAAAAAAAAAAAAAAAAAAAAAAAAAAAAAAAAAAAAAAAAAAAAAAAAAAAAAAAAAAAAAAAAAAAAAAAAAAAAAAAAAAAAAAAAAAAAAAAAAAAAAAAAAAAAAAAAAAAAAAAAAAAAAAAAAAAAAAAAAAAAAAAAAAAAAAAAAAAAAAAAAAAAAAAAAAAAAAAAAAAAAAAAAAAAAAAAAAAAAAAAAAAAAAAAAAAAAAAAAAAAAAAAAAAAAAAAAAAAAAAAAAAAAAAAAAAAAAAAAAAAAAAAAAAAAAAAAAAAAAAAAAAAAAAAAAAAAAAAAAAAAAAAAAAAAAAAAAAAAAAAAAAAAAAAAAAAAAAAAAAAAAAAAAAAAAAAAAAAAAAAAAAAAAAAAAAAAAAAAAAAAAAAAAAAAAAAAAAAAAAAAAAAAAAAAAAAAAAAAAAAAAAAAAAAAAAAAAAAAAAAAAAAAAAAAAAAAAAAAAAAAAAAAAAAAAAAAAAAAAAAAAAAAAAAAAAAAAAAAAAAAAAAAAAAAAAAAAAAAAAAAAAAAAAAAAAAAAAAAAAAAAAAAAAAAAAAAAAAAAAAAAAAAAAAAAAAAAAAAAAAAAAAAAAAAAAAAAAAAAAAAAAAAAAAAAAAAAAAAAAAAAAAAAAAAAAAAAAAAAAAAAAAAAAAAAAAAAAAAAAAAAAAAAAAAAAAAAAAAAAAAAAAAAAAAAAAAAAAAAAAAAAAAAAAAAAAAAAAAAAAAAAAAAAAAAAAAAAAAAAAAAAAAAAAAAAAAAAAAAAAAAAAAAAAAAAAAAAAAAAAAAAAAAAAAAAAAAAAAAAAAAAAAAAAAAAAAAAAAAAAAAAAAAAAAAAAAAAAAAAAAAAAAAAAAAAAAAAAAAAAAAAAAAAAAAAAAAAAAAAAAAAAAAAAAAAAAAAAAAAAAAAAAAAAAAAAAAAAAAAAAAAAAAAAAAAAAAAAAAAAAAAAAAAAAAAAAAAAAAAAAAAAAAAAAAAAAAAAAAAAAAAAAAAAAAAAAAAAAAAAAAAAAAAAAAAAAAAAAAAAAAAAAAAAAAAAAAAAAAAAAAAAAAAAAAAAAAAAAAAAAAAAAAAAAAAAAAAAAAAAAAAAAAAAAAAAAAAAAAAAAAAAAAAAAAAAAAAAAAAAAAAAAAAAAAAAAAAAAAAAAAAAAAAAAAAAAAAAAAAAAAAAAAAAAAAAAAAAAAAAAAAAAAAAAAAAAAAAAAAAAAAAAAAAAAAAAAAAAAAAAAAAAAAAAAAAAAAAAAAAAAAAAAAAAAAAAAAAAAAAAAAAAAAAAAAAAAAAAAAAAAAAAAAAAAAAAAAAAAAAAAAAAAAAAAAAAAAAAAAAAAAAAAAAAAAAAAAAAAAAAAAAAAAAAAAAAAAAAAAAAAAAAAAAAAAAAAAAAAAAAAAAAAAAAAAAAAAAAAAAAAAAAAAAAAAAAAAAAAAAAAAAAAAAAAAAAAAAAAAAAAAAAAAAAAAAAAAAAAAAAAAAAAAAAAAAAAAAAAAAAAAAAAAAAAAAAAAAAAAAAAAAAAAAAAAAAAAAAAAAAAAAAAAAAAAAAAAAAAAAAAAAAAAAAAAAAAAAAAAAAAAAAAAAAAAAAAAAAAAAAAAAAAAAAAAAAAAAAAAAAAAAAAAAAAAAAAAAAAAAAAAAAAAAAAAAAAAAAAAAAAAAAAAAAAAAAAAAAAAAAAAAAAAAAAAAAAAAAAAAAAAAAAAAAAAAAAAAAAAAAAAAAAAAAAAAAAAAAAAAAAAAAAAAAAAAAAAAAAAAAAAAAAAAAAAAAAAAAAAAAAAAAAAAAAAAAAAAAAAAAAAAAAAAAAAAAAAAAAAAAAAAAAAAAAAAAAAAAAAAAAAAAAAAAAAAAAAAAAAAAAAAAAAAAAAAAAAAAAAAAAAAAAAAAAAAAAAAAAAAAAAAAAAAAAAAAAAAAAAAAAAAAAAAAAAAAAAAAAAAAAAAAAAAAAAAAAAAAAAAAAAAAAAAAAAAAAAAAAAAAAAAAAAAAAAAAAAAAAAAAAAAAAAAAAAAAAAAAAAAAAAAAAAAAAAAAAAAAAAAAAAAAAAAAAAAAAAAAAAAAAAAAAAAAAAAAAAAAAAAAAAAAAAAAAAAAAAAAAAAAAAAAAAAAAAAAAAAAAAAAAAAAAAAAAAAAAAAAAAAAAAAAAAAAAAAAAAAAAAAAAAAAAAAAAAAAAAAAAAAAAAAAAAAAAAAAAAAAAAAAAAAAAAAAAAAAAAAAAAAAAAAAAAAAAAAAAAAAAAAAAAAAAAAAAAAAAAAAAAAAAAAAAAAAAAAAAAAAAAAAAAAAAAAAAAAAAAAAAAAAAAAAAAAAAAAAAAAAAAAAAAAAAAAAAAAAAAAAAAAAAAAAAAAAAAAAAAAAAAAAAAAAAAAAAAAAAAAAAAAAAAAAAAAAAAAAAAAAAAAAAAAAAAAAAAAAAAAAAAAAAAAAAAAAAAAAAAAAAAAAAAAAAAAAAAAAAAAAAAAAAAAAAAAAAAAAAAAAAAAAAAAAAAAAAAAAAAAAAAAAAAAAAAAAAAAAAAAAAAAAAAAAAAAAAAAAAAAAAAAAAAAAAAAAAAAAAAAAAAAAAAAAAAAAAAAAAAAAAAAAAAAAAAAAAAAAAAAAAAAAAAAAAAAAAAAAAAAAAAAAAAAAAAAAAAAAAAAAAAAAAAAAAAAAAAAAAAAAAAAAAAAAAAAAAAAAAAAAAAAAAAAAAAAAAAAAAAAAAAAAAAAAAAAAAAAAAAAAAAAAAAAAAAAAAAAAAAAAAAAAAAAAAAAAAAAAAAAAAAAAAAAAAAAAAAAAAAAAAAAAAAAAAAAPZYQGvgLtTiB2n7W8UWxzvLv1bgp2EyYvJ6gvCeXY/jDWI+ped9ZyWTpXHIcplieH1/3tCKH8cbuPQu1egi+GxIT7I=</c2pa:manifest></metadata>
  <defs>
    <radialGradient id="bg" cx="0.5" cy="0.45" r="0.8">
      <stop offset="0" stop-color="#b8343c"/>
      <stop offset="1" stop-color="#3a0a12"/>
    </radialGradient>
    <g id="cam" stroke="#1c1b22" stroke-width="2.5" stroke-linejoin="round">
      <rect x="-11" y="-8" width="22" height="16" rx="5" fill="#d9dde3"/>
      <circle cx="0" cy="0" r="6.5" fill="#fdf6e3"/>
      <circle cx="0" cy="0" r="3.5" fill="#e0312a" stroke-width="1.5"/>
      <circle cx="-1" cy="-1" r="1" fill="#fff" stroke="none"/>
    </g>
    <g id="scr" stroke="#1c1b22" stroke-linejoin="round">
      <rect x="-12" y="-9" width="24" height="18" rx="2" fill="#1c1b22" stroke-width="2.5"/>
      <rect x="-9" y="-6" width="18" height="12" fill="#1e3a2e" stroke="none"/>
      <path d="M-7 0 L-4 3 L1 -3" fill="none" stroke="#5fe08a" stroke-width="2.2" stroke-linecap="round"/>
      <path d="M3 -2 L7 -2 M3 2 L7 2" stroke="#5fe08a" stroke-width="1.8"/>
    </g>
  </defs>
  <rect width="160" height="120" fill="url(#bg)"/>
  <!-- circuit pattern -->
  <g fill="none" stroke="#ff9a8a" stroke-width="1.4" opacity="0.28">
    <path d="M0 40 L20 40 L28 48 L50 48 M0 84 L16 84 L24 76 L40 76 M160 44 L138 44 L130 36 L112 36 M160 88 L144 88 L136 96 L118 96 M60 0 L60 12 L68 20 M104 0 L104 10 L96 18"/>
  </g>
  <g fill="#ff9a8a" opacity="0.35">
    <circle cx="50" cy="48" r="2"/><circle cx="40" cy="76" r="2"/><circle cx="112" cy="36" r="2"/><circle cx="118" cy="96" r="2"/><circle cx="68" cy="20" r="2"/><circle cx="96" cy="18" r="2"/>
  </g>
  <!-- cables -->
  <g fill="none" stroke="#1c1b22" stroke-width="2.5" stroke-linecap="round">
    <path d="M14 0 C14 10 22 12 22 22"/>
    <path d="M146 0 C146 8 138 12 138 18"/>
    <path d="M160 52 C150 52 150 58 144 60"/>
    <path d="M0 58 C8 58 10 50 18 50"/>
  </g>
  <!-- camera-eyes -->
  <use href="#cam" transform="translate(22 28) rotate(15)"/>
  <use href="#cam" transform="translate(136 24) rotate(-15)"/>
  <use href="#cam" transform="translate(136 62) scale(0.85) rotate(-25)"/>
  <!-- score screens -->
  <use href="#scr" transform="translate(22 60) rotate(-6)"/>
  <use href="#scr" transform="translate(142 98) rotate(6)"/>
  <use href="#scr" transform="translate(18 100) rotate(4)"/>
  <!-- grey suit -->
  <path d="M34 120 C36 98 50 90 66 88 L94 88 C110 90 124 98 126 120 Z" fill="#7a7f8a" stroke="#1c1b22" stroke-width="3" stroke-linejoin="round"/>
  <path d="M66 88 L80 110 L94 88 Z" fill="#fdf6e3" stroke="#1c1b22" stroke-width="2" stroke-linejoin="round"/>
  <path d="M77.5 92 L82.5 92 L84 106 L80 112 L76 106 Z" fill="#8a1a24" stroke="#1c1b22" stroke-width="2" stroke-linejoin="round"/>
  <path d="M66 88 L58 96 L72 104 Z M94 88 L102 96 L88 104 Z" fill="#646973" stroke="#1c1b22" stroke-width="2" stroke-linejoin="round"/>
  <!-- camera-eye lapel pin -->
  <circle cx="104" cy="102" r="3.5" fill="#fdf6e3" stroke="#1c1b22" stroke-width="1.5"/>
  <circle cx="104" cy="102" r="1.6" fill="#e0312a"/>
  <!-- steepled hands -->
  <path d="M70 120 C70 112 76 104 80 98 C84 104 90 112 90 120 Z" fill="#e6b896" stroke="#1c1b22" stroke-width="2.5" stroke-linejoin="round"/>
  <path d="M80 98 L80 118" stroke="#1c1b22" stroke-width="1.8"/>
  <!-- neck + head -->
  <rect x="72" y="74" width="16" height="15" fill="#d09a78" stroke="#1c1b22" stroke-width="3"/>
  <circle cx="58" cy="54" r="4.5" fill="#e6b896" stroke="#1c1b22" stroke-width="2.5"/>
  <circle cx="102" cy="54" r="4.5" fill="#e6b896" stroke="#1c1b22" stroke-width="2.5"/>
  <path d="M58 50 C58 34 66 28 80 28 C94 28 102 34 102 50 C102 68 94 78 80 78 C66 78 58 68 58 50 Z" fill="#e6b896" stroke="#1c1b22" stroke-width="3" stroke-linejoin="round"/>
  <!-- neat dark hair, grey temples -->
  <path d="M57 48 C55 30 66 22 80 22 C94 22 105 30 103 48 C100 40 96 36 90 36 C78 36 68 38 62 36 C60 40 58 44 57 48 Z" fill="#2a2628" stroke="#1c1b22" stroke-width="3" stroke-linejoin="round"/>
  <path d="M59 46 L61 38 M101 46 L99 38" stroke="#b8bcc4" stroke-width="2.5" stroke-linecap="round"/>
  <path d="M70 27 Q80 24 90 27" fill="none" stroke="#6a6468" stroke-width="2" stroke-linecap="round"/>
  <!-- calm half-closed eyes with red glint -->
  <path d="M66 50 Q71 47 76 50 M84 50 Q89 47 94 50" fill="none" stroke="#1c1b22" stroke-width="2.5" stroke-linecap="round"/>
  <path d="M66 54 Q71 51 76 54 M84 54 Q89 51 94 54" fill="none" stroke="#1c1b22" stroke-width="2.8" stroke-linecap="round"/>
  <circle cx="71" cy="55" r="1.6" fill="#e0312a"/>
  <circle cx="89" cy="55" r="1.6" fill="#e0312a"/>
  <path d="M80 56 C83 61 83 63 80 64" fill="none" stroke="#1c1b22" stroke-width="2" stroke-linecap="round"/>
  <path d="M72 69 Q80 73 88 69" fill="none" stroke="#1c1b22" stroke-width="2.5" stroke-linecap="round"/>
  <circle cx="66" cy="64" r="3" fill="#e8847a" opacity="0.4"/>
  <circle cx="94" cy="64" r="3" fill="#e8847a" opacity="0.4"/>
</svg>
