<svg xmlns="http://www.w3.org/2000/svg" viewBox="0 0 160 120" xmlns:c2pa="http://c2pa.org/manifest"><metadata><c2pa:manifest>AAAWgmp1bWIAAAAeanVtZGMycGEAEQAQgAAAqgA4m3EDYzJwYQAAABZcanVtYgAAAEdqdW1kYzJtYQARABCAAACqADibcQN1cm46YzJwYTpkMjViNDU4Mi00NTE2LTQ2MTgtOTQyMC0xZDFhMzg4ZDBhYzMAAAADl2p1bWIAAAApanVtZGMyYXMAEQAQgAAAqgA4m3EDYzJwYS5hc3NlcnRpb25zAAAAALxqdW1iAAAARGp1bWRjYm9yABEAEIAAAKoAOJtxE2MycGEuaW5ncmVkaWVudC52MwAAAAAYYzJzaMcntnHnNphl884abGzIRFEAAABwY2JvcqNpZGM6Zm9ybWF0bWltYWdlL3N2Zyt4bWxqaW5zdGFuY2VJRHgseG1wOmlpZDoyYzM4NGEzZi1iYmNmLTRmZDctYTBlMS1jMjVlNzkyMWY0NzJscmVsYXRpb25zaGlwaHBhcmVudE9mAAAB4mp1bWIAAABBanVtZGNib3IAEQAQgAAAqgA4m3ETYzJwYS5hY3Rpb25zLnYyAAAAABhjMnNo1MoWOfQUl6hqW3x/EDXFxAAAAZljYm9yomdhY3Rpb25zgqJmYWN0aW9ua2MycGEub3BlbmVkanBhcmFtZXRlcnOha2luZ3JlZGllbnRzgaJjdXJseC1zZWxmI2p1bWJmPWMycGEuYXNzZXJ0aW9ucy9jMnBhLmluZ3JlZGllbnQudjNkaGFzaFgg8jFqoRmegYeeIohpjv0Zh2BODDYCKPs/fum1pluNtr+kZmFjdGlvbngdY29tLmFudGhyb3BpYy5jbGF1ZGUucHJvdmlkZWRqcGFyYW1ldGVyc6F4H2NvbS5hbnRocm9waWMub3JpZ2luLWNvbmZpZGVuY2VndW5rbm93bmtkZXNjcmlwdGlvbnhmQ2xhdWRlIHByb3ZpZGVkIHRoaXMgZmlsZSBhdCB0aGUgcmVxdWVzdCBvZiBhIHVzZXIgYW5kIG1heSBoYXZlIGNyZWF0ZWQgb3IgbW9kaWZpZWQgdGhlIGZpbGUgY29udGVudHMubXNvZnR3YXJlQWdlbnShZG5hbWVmQ2xhdWRlcmFsbEFjdGlvbnNJbmNsdWRlZPUAAADIanVtYgAAAEBqdW1kY2JvcgARABCAAACqADibcRNjMnBhLmhhc2guZGF0YQAAAAAYYzJzaCUPtU1TnTN+scZCSsL/X54AAACAY2JvcqVjYWxnZnNoYTI1NmNwYWRNAAAAAAAAAAAAAAAAAGRoYXNoWCCnhamtzPf89S1QkVaGNAE2F8aJ5K4PY4Y8XP/mVlo9gWRuYW1lbmp1bWJmIG1hbmlmZXN0amV4Y2x1c2lvbnOBomVzdGFydBh9Zmxlbmd0aBkeBAAAAj5qdW1iAAAAJ2p1bWRjMmNsABEAEIAAAKoAOJtxA2MycGEuY2xhaW0udjIAAAACD2Nib3KlY2FsZ2ZzaGEyNTZpc2lnbmF0dXJleE1zZWxmI2p1bWJmPS9jMnBhL3VybjpjMnBhOmQyNWI0NTgyLTQ1MTYtNDYxOC05NDIwLTFkMWEzODhkMGFjMy9jMnBhLnNpZ25hdHVyZWppbnN0YW5jZUlEeCx4bXA6aWlkOmQ5YjU5ODkwLTBiMzctNGRlMC1hYWUyLTU1Zjg0NTI4ZTU4MXJjcmVhdGVkX2Fzc2VydGlvbnODomN1cmx4LXNlbGYjanVtYmY9YzJwYS5hc3NlcnRpb25zL2MycGEuaW5ncmVkaWVudC52M2RoYXNoWCDyMWqhGZ6Bh54iiGmO/RmHYE4MNgIo+z9+6bWmW422v6JjdXJseCpzZWxmI2p1bWJmPWMycGEuYXNzZXJ0aW9ucy9jMnBhLmFjdGlvbnMudjJkaGFzaFggW4vrPJAf/iaXhJJmokSCwBxFi9P+bq/r3d32/mGQLbqiY3VybHgpc2VsZiNqdW1iZj1jMnBhLmFzc2VydGlvbnMvYzJwYS5oYXNoLmRhdGFkaGFzaFgg7Vh9RcLuw2KOIbEFVGYuKBD7wx3ac8vzHkwZUyK5udh0Y2xhaW1fZ2VuZXJhdG9yX2luZm+jZG5hbWVvQW50aHJvcGljIEZpbGVzZ3ZlcnNpb25lMS4wLjBrc3BlY1ZlcnNpb25lMi40LjAAABA4anVtYgAAAChqdW1kYzJjcwARABCAAACqADibcQNjMnBhLnNpZ25hdHVyZQAAABAIY2JvctKEWQISogEmGCFZAgowggIGMIIBjaADAgECAhRA5aAK7sI50L64g/oGQgU9Z1UTADAKBggqhkjOPQQDAzBJMRcwFQYDVQQKEw5BbnRocm9waWMsIFBCQzEuMCwGA1UEAxMlQW50aHJvcGljIENvbnRlbnQgQ3JlZGVudGlhbHMgUm9vdCBDQTAeFw0yNjA4MDcxODQzNTZaFw0yODA4MDYxOTQzNTZaMEQxFzAVBgNVBAoTDkFudGhyb3BpYywgUEJDMSkwJwYDVQQDEyBBbnRocm9waWMgQ2xhdWRlIENvbnRlbnQgU2lnbmluZzBZMBMGByqGSM49AgEGCCqGSM49AwEHA0IABJh6CmvLUBgFFNU0vUKlOVtE6djd17L5SuwX0LemFisBM3dkd/3cyjxFA3Qo5S46fX0/ihY0VZ7mfb9KF703t5OjWDBWMA4GA1UdDwEB/wQEAwIHgDAVBgNVHSUEDjAMBgorBgEEAYPoXgIBMAwGA1UdEwEB/wQCMAAwHwYDVR0jBBgwFoAUzlHiBIFOZFsj+OPEz5o+nMHXXMIwCgYIKoZIzj0EAwMDZwAwZAIwMXMdFJ4BetLLVY7ORuE9noqbbAZOZn/aArXyTwFAZfKrPzxF2vPoJNf1+UCdg1XGAjBwX1zd9WGqYkqmL5SFqw1QySjr1zJfpJM9+1rdDwSPLMOPOjKuiXjoU/pUUeG9RwmhY3BhZFkNngAAAAAAAAAAAAAAAAAAAAAAAAAAAAAAAAAAAAAAAAAAAAAAAAAAAAAAAAAAAAAAAAAAAAAAAAAAAAAAAAAAAAAAAAAAAAAAAAAAAAAAAAAAAAAAAAAAAAAAAAAAAAAAAAAAAAAAAAAAAAAAAAAAAAAAAAAAAAAAAAAAAAAAAAAAAAAAAAAAAAAAAAAAAAAAAAAAAAAAAAAAAAAAAAAAAAAAAAAAAAAAAAAAAAAAAAAAAAAAAAAAAAAAAAAAAAAAAAAAAAAAAAAAAAAAAAAAAAAAAAAAAAAAAAAAAAAAAAAAAAAAAAAAAAAAAAAAAAAAAAAAAAAAAAAAAAAAAAAAAAAAAAAAAAAAAAAAAAAAAAAAAAAAAAAAAAAAAAAAAAAAAAAAAAAAAAAAAAAAAAAAAAAAAAAAAAAAAAAAAAAAAAAAAAAAAAAAAAAAAAAAAAAAAAAAAAAAAAAAAAAAAAAAAAAAAAAAAAAAAAAAAAAAAAAAAAAAAAAAAAAAAAAAAAAAAAAAAAAAAAAAAAAAAAAAAAAAAAAAAAAAAAAAAAAAAAAAAAAAAAAAAAAAAAAAAAAAAAAAAAAAAAAAAAAAAAAAAAAAAAAAAAAAAAAAAAAAAAAAAAAAAAAAAAAAAAAAAAAAAAAAAAAAAAAAAAAAAAAAAAAAAAAAAAAAAAAAAAAAAAAAAAAAAAAAAAAAAAAAAAAAAAAAAAAAAAAAAAAAAAAAAAAAAAAAAAAAAAAAAAAAAAAAAAAAAAAAAAAAAAAAAAAAAAAAAAAAAAAAAAAAAAAAAAAAAAAAAAAAAAAAAAAAAAAAAAAAAAAAAAAAAAAAAAAAAAAAAAAAAAAAAAAAAAAAAAAAAAAAAAAAAAAAAAAAAAAAAAAAAAAAAAAAAAAAAAAAAAAAAAAAAAAAAAAAAAAAAAAAAAAAAAAAAAAAAAAAAAAAAAAAAAAAAAAAAAAAAAAAAAAAAAAAAAAAAAAAAAAAAAAAAAAAAAAAAAAAAAAAAAAAAAAAAAAAAAAAAAAAAAAAAAAAAAAAAAAAAAAAAAAAAAAAAAAAAAAAAAAAAAAAAAAAAAAAAAAAAAAAAAAAAAAAAAAAAAAAAAAAAAAAAAAAAAAAAAAAAAAAAAAAAAAAAAAAAAAAAAAAAAAAAAAAAAAAAAAAAAAAAAAAAAAAAAAAAAAAAAAAAAAAAAAAAAAAAAAAAAAAAAAAAAAAAAAAAAAAAAAAAAAAAAAAAAAAAAAAAAAAAAAAAAAAAAAAAAAAAAAAAAAAAAAAAAAAAAAAAAAAAAAAAAAAAAAAAAAAAAAAAAAAAAAAAAAAAAAAAAAAAAAAAAAAAAAAAAAAAAAAAAAAAAAAAAAAAAAAAAAAAAAAAAAAAAAAAAAAAAAAAAAAAAAAAAAAAAAAAAAAAAAAAAAAAAAAAAAAAAAAAAAAAAAAAAAAAAAAAAAAAAAAAAAAAAAAAAAAAAAAAAAAAAAAAAAAAAAAAAAAAAAAAAAAAAAAAAAAAAAAAAAAAAAAAAAAAAAAAAAAAAAAAAAAAAAAAAAAAAAAAAAAAAAAAAAAAAAAAAAAAAAAAAAAAAAAAAAAAAAAAAAAAAAAAAAAAAAAAAAAAAAAAAAAAAAAAAAAAAAAAAAAAAAAAAAAAAAAAAAAAAAAAAAAAAAAAAAAAAAAAAAAAAAAAAAAAAAAAAAAAAAAAAAAAAAAAAAAAAAAAAAAAAAAAAAAAAAAAAAAAAAAAAAAAAAAAAAAAAAAAAAAAAAAAAAAAAAAAAAAAAAAAAAAAAAAAAAAAAAAAAAAAAAAAAAAAAAAAAAAAAAAAAAAAAAAAAAAAAAAAAAAAAAAAAAAAAAAAAAAAAAAAAAAAAAAAAAAAAAAAAAAAAAAAAAAAAAAAAAAAAAAAAAAAAAAAAAAAAAAAAAAAAAAAAAAAAAAAAAAAAAAAAAAAAAAAAAAAAAAAAAAAAAAAAAAAAAAAAAAAAAAAAAAAAAAAAAAAAAAAAAAAAAAAAAAAAAAAAAAAAAAAAAAAAAAAAAAAAAAAAAAAAAAAAAAAAAAAAAAAAAAAAAAAAAAAAAAAAAAAAAAAAAAAAAAAAAAAAAAAAAAAAAAAAAAAAAAAAAAAAAAAAAAAAAAAAAAAAAAAAAAAAAAAAAAAAAAAAAAAAAAAAAAAAAAAAAAAAAAAAAAAAAAAAAAAAAAAAAAAAAAAAAAAAAAAAAAAAAAAAAAAAAAAAAAAAAAAAAAAAAAAAAAAAAAAAAAAAAAAAAAAAAAAAAAAAAAAAAAAAAAAAAAAAAAAAAAAAAAAAAAAAAAAAAAAAAAAAAAAAAAAAAAAAAAAAAAAAAAAAAAAAAAAAAAAAAAAAAAAAAAAAAAAAAAAAAAAAAAAAAAAAAAAAAAAAAAAAAAAAAAAAAAAAAAAAAAAAAAAAAAAAAAAAAAAAAAAAAAAAAAAAAAAAAAAAAAAAAAAAAAAAAAAAAAAAAAAAAAAAAAAAAAAAAAAAAAAAAAAAAAAAAAAAAAAAAAAAAAAAAAAAAAAAAAAAAAAAAAAAAAAAAAAAAAAAAAAAAAAAAAAAAAAAAAAAAAAAAAAAAAAAAAAAAAAAAAAAAAAAAAAAAAAAAAAAAAAAAAAAAAAAAAAAAAAAAAAAAAAAAAAAAAAAAAAAAAAAAAAAAAAAAAAAAAAAAAAAAAAAAAAAAAAAAAAAAAAAAAAAAAAAAAAAAAAAAAAAAAAAAAAAAAAAAAAAAAAAAAAAAAAAAAAAAAAAAAAAAAAAAAAAAAAAAAAAAAAAAAAAAAAAAAAAAAAAAAAAAAAAAAAAAAAAAAAAAAAAAAAAAAAAAAAAAAAAAAAAAAAAAAAAAAAAAAAAAAAAAAAAAAAAAAAAAAAAAAAAAAAAAAAAAAAAAAAAAAAAAAAAAAAAAAAAAAAAAAAAAAAAAAAAAAAAAAAAAAAAAAAAAAAAAAAAAAAAAAAAAAAAAAAAAAAAAAAAAAAAAAAAAAAAAAAAAAAAAAAAAAAAAAAAAAAAAAAAAAAAAAAAAAAAAAAAAAAAAAAAAAAAAAAAAAAAAAAAAAAAAAAAAAAAAAAAAAAAAAAAAAAAAAAAAAAAAAAAAAAAAAAAAAAAAAAAAAAAAAAAAAAAAAAAAAAAAAAAAAAAAAAAAAAAAAAAAAAAAAAAAAAAAAAAAAAAAAAAAAAAAAAAAAAAAAAAAAAAAAAAAAAAAAAAAAAAAAAAAAAAAAAAAAAAAAAAAAAAAAAAAAAAAAAAAAAAAAAAAAAAAAAAAAAAAAAAAAAAAAAAAAAAAAAAAAAAAAAAAAAAAAAAAAAAAAAAAAAAAAAAAAAAAAAAAAAAAAAAAAAAAAAAAAAAAAAAAAAAAAAAAAAAAAAAAAAAAAAAAAAAAAAAAAAAAAAAAAAAAAAAAAAAAAAAAAAAAAAAAAAAAAAAAAAAAAAAAAAAAAAAAAAAAAAAAAAAAAAAAAAAAAAAAAAAAAAAAAAAAAAAAAAAAAAAAAAAAAAAAAAAAAAAAAAAAAAAAAAAAAAAAAAAAAAAAAAAAAAAAAAAAAAAAAAAAAAAAAAAAAAAAAAAAAAAAAAAAAAAAAAAAAAAAAAAAAAAAAAAAAAAAAAAAAAAAAAAAAAAAAAAAAAAAAAAAAAAAAAAAAAAAAAAAAAAAAAAAAAAAAAAAAAAAAAAAAAAAAAAAAAAAAAAAAAAAAAAAAAAAAAAAAAAAAAAAAAAAAAAAAAAAAAAAAAAAAAAAAAAAAAAAAAAAAAAAAAAAAAAAAAAAAAAAAAAAAAAAAAAAAAAAAAAAAAAAAAAAAAAAAAAAAAAAAAAAAAAAAAAAAAAAAAAAAAAAAAAAAAAAAAAAAAAAAAAAAAAAAAAAAAAAAAAAAAAAAAAAAAAAAAAAAAAAAAAAAAAAAAAAAAAAAAAAAAAAAAAAAAAAAAAAAAAAAAAAAAAAAAAAAAAAAAAAAAAAAAAAAAAAAAAAAAAAAAAAAAAAAAAAAAAAAAAAAAAAAAAAAAAAAAAAAAAAAAAAAAAAAAAAAAAAAAAAAAAAAAAAAAAAAAAAAAAAAAAAAAAAAAAAAAAAAAAAAAAAAAAAAAAAAAAAAAAAAAAAAAAAAAAAAAAAAAAAAAAAAAAAAAAAAAAAAAAAAAAAAAAAAAAAAAAAAAAAAAAAAAAAAAAAAAAAAAAAAAAAAAAAAAAAAAAAAAAAAAAAAAAAAAAAAAAAAAAAAAAAAAAAAAAAAAAAAAAAAAAAAAAAAAAAAAAAAAAAAAAAAAAAAAAAAAAAAAAAAAAAAAAAAAAAAAAAAAAAAAAAAAAAAAAAAAAAAAAAAAAAAAAAAAAAAAAAAAAAAAAAAAAAAAAAAAAAAAAAAAAAAAAAAAAAAAAAAAAAAAAAAAAAAAAAAAAAAAAAAAAAAAAAAAAAAAAAAAAAAAAAAAAAAAAAAAAAAAAAAAAAAAAAAAAAAAAAAAAAAAAAAAAAAAAAAAAAAAAAAAAAAAAAAAAAAAAAAAAAAAAAAAAAAAAAAAAAAAAAAAAAAAAAAAAAAAAAAAAAAAAAAAAAAAAAAAAAAAAAAAAAAAAAAAAAAAAAAAAAAAAAAAAAAAAAAAAAAAAAAAAAAAAAAAAAAAAAAAAAAAAAAAAAAAAAAAAAAAAAAAAAAAAAAAAAAAAAAAAAAAAAAAAAAAAAAAAAAAAAAAAAAAPZYQMPRFO7di3s4JgxCeIPrcyDh4ERjYf8M9L0ttuoAUR6yQPX/Wxz3/iFUc83FgGfTfOPwICPPA6LB20wtC890Dlw=</c2pa:manifest></metadata>
  <defs>
    <radialGradient id="bg" cx="0.5" cy="0.4" r="0.8">
      <stop offset="0" stop-color="#ec5d45"/>
      <stop offset="1" stop-color="#6a0d0d"/>
    </radialGradient>
  </defs>
  <rect width="160" height="120" fill="url(#bg)"/>
  <!-- sunburst -->
  <g fill="#ffe7a0" opacity="0.16">
    <polygon points="78,44 50,0 66,0"/>
    <polygon points="78,44 92,0 108,0"/>
    <polygon points="78,44 136,0 156,0"/>
    <polygon points="78,44 0,0 18,0"/>
    <polygon points="78,44 160,34 160,52"/>
    <polygon points="78,44 0,30 0,48"/>
  </g>
  <!-- grey suit -->
  <path d="M36 120 C38 94 52 86 68 84 L90 84 C106 86 120 94 122 120 Z" fill="#5a5f6e" stroke="#1c1b22" stroke-width="3" stroke-linejoin="round"/>
  <path d="M68 84 L79 100 L90 84 Z" fill="#fdf6e3" stroke="#1c1b22" stroke-width="2" stroke-linejoin="round"/>
  <path d="M76 88 L82 88 L83 100 L79 104 L75 100 Z" fill="#c0392b" stroke="#1c1b22" stroke-width="1.8" stroke-linejoin="round"/>
  <!-- gavel arm, mid-bang -->
  <path d="M108 96 L124 72" stroke="#1c1b22" stroke-width="15" stroke-linecap="round"/>
  <path d="M108 96 L124 72" stroke="#5a5f6e" stroke-width="10" stroke-linecap="round"/>
  <g transform="rotate(-40 128 68)" stroke="#1c1b22" stroke-width="2.5" stroke-linejoin="round">
    <rect x="125" y="46" width="6" height="26" fill="#a36a3b"/>
    <rect x="116" y="34" width="24" height="13" rx="3" fill="#8a5530"/>
    <rect x="120" y="34" width="3.5" height="13" fill="#e0a722" stroke-width="1.6"/>
    <rect x="132.5" y="34" width="3.5" height="13" fill="#e0a722" stroke-width="1.6"/>
  </g>
  <ellipse cx="126" cy="70" rx="7" ry="6" fill="#e3b08a" stroke="#1c1b22" stroke-width="2.5"/>
  <g fill="none" stroke="#fffbe6" stroke-width="2.3" stroke-linecap="round">
    <path d="M108 34 Q116 28 124 30"/>
    <path d="M104 44 Q108 38 114 38"/>
  </g>
  <!-- neck + head -->
  <rect x="70" y="72" width="18" height="13" fill="#c48f6a" stroke="#1c1b22" stroke-width="3"/>
  <path d="M56 46 C56 26 64 20 79 20 C94 20 102 26 102 46 C102 66 98 78 79 78 C60 78 56 66 56 46 Z" fill="#e3b08a" stroke="#1c1b22" stroke-width="3" stroke-linejoin="round"/>
  <!-- flat-top grey hair -->
  <path d="M55 42 L55 22 C55 14 62 12 79 12 C96 12 103 14 103 22 L103 42 C101 34 98 30 94 30 L64 30 C60 30 57 34 55 42 Z" fill="#8a8f99" stroke="#1c1b22" stroke-width="3" stroke-linejoin="round"/>
  <path d="M62 16 L96 16" stroke="#c9ccd3" stroke-width="2" stroke-linecap="round"/>
  <!-- furrowed brow + thick glasses -->
  <path d="M60 42 L75 46 M98 42 L83 46" stroke="#1c1b22" stroke-width="4" stroke-linecap="round"/>
  <path d="M77 36 L79 42 L81 36" fill="none" stroke="#b98a6c" stroke-width="1.6" stroke-linecap="round"/>
  <g fill="#e8f0ee" stroke="#1c1b22" stroke-width="3">
    <rect x="61" y="47" width="14" height="10" rx="2"/>
    <rect x="83" y="47" width="14" height="10" rx="2"/>
  </g>
  <path d="M75 51 L83 51" stroke="#1c1b22" stroke-width="3"/>
  <circle cx="69" cy="53" r="2.5" fill="#1c1b22"/>
  <circle cx="89" cy="53" r="2.5" fill="#1c1b22"/>
  <path d="M79 56 C83 61 83 63 79 64" fill="none" stroke="#1c1b22" stroke-width="2.3" stroke-linecap="round"/>
  <!-- stern frown -->
  <path d="M68 72 Q79 64 90 72" fill="none" stroke="#1c1b22" stroke-width="3" stroke-linecap="round"/>
  <path d="M64 64 L66 70 M94 64 L92 70" stroke="#b98a6c" stroke-width="1.6" stroke-linecap="round"/>
  <!-- podium -->
  <g stroke="#1c1b22" stroke-width="3" stroke-linejoin="round">
    <path d="M44 94 L116 94 L110 120 L50 120 Z" fill="#a36a3b"/>
    <path d="M36 86 L124 86 L120 95 L40 95 Z" fill="#8a5530"/>
    <rect x="112" y="80" width="14" height="7" rx="1.5" fill="#6b3f20" stroke-width="2.3"/>
    <circle cx="94" cy="107" r="8" fill="#e0a722" stroke-width="2.5"/>
  </g>
  <polygon points="94,101 95.6,104.9 99.7,105.1 96.5,107.7 97.6,111.8 94,109.5 90.4,111.8 91.5,107.7 88.3,105.1 92.4,104.9" fill="#fff6c8"/>
  <path d="M42 89 L118 89" stroke="#c48a55" stroke-width="1.8" stroke-linecap="round"/>
  <!-- impact burst -->
  <g stroke="#fff6c8" stroke-width="2.5" stroke-linecap="round">
    <path d="M130 78 L138 74 M132 84 L141 85 M112 76 L106 70"/>
  </g>
  <!-- endless list of names -->
  <g stroke="#1c1b22" stroke-width="2.5" stroke-linejoin="round">
    <path d="M52 84 L70 84 L70 119 L8 119 L8 109 L52 109 Z" fill="#fdf6e3"/>
    <ellipse cx="8" cy="114" rx="5" ry="6" fill="#efe6d2"/>
    <rect x="48" y="80" width="26" height="6" rx="3" fill="#e0a722"/>
  </g>
  <circle cx="8" cy="114" r="2" fill="none" stroke="#1c1b22" stroke-width="1.6"/>
  <g stroke="#6a6e78" stroke-width="1.6" stroke-linecap="round">
    <path d="M56 89 L66 89 M56 93 L64 93 M56 97 L67 97 M56 101 L63 101 M56 105 L66 105"/>
    <path d="M16 112 L24 112 M28 112 L36 112 M40 112 L48 112 M52 112 L60 112 M16 116 L22 116 M28 116 L34 116 M40 116 L46 116 M52 116 L58 116"/>
  </g>
</svg>
